<svg width="99" height="68" viewBox="0 0 99 68" fill="none" xmlns="http://www.w3.org/2000/svg">
<g clip-path="url(#clip0)">
<path d="M98.8073 67.2992C91.2858 58.5752 86.2716 46.2682 81.643 35.2075C76.693 23.4458 70.4573 12.5409 66.1501 0.389648" stroke="black" stroke-width="1.0243" stroke-miterlimit="10"/>
<path d="M77.0143 67.2992C69.4929 58.5752 64.4786 46.2682 59.85 35.2075C54.9 23.4458 48.6 12.5409 44.3572 0.389648" stroke="black" stroke-width="1.5365" stroke-miterlimit="10"/>
<path d="M55.2216 67.2992C47.7002 58.5752 42.6859 46.2682 38.0573 35.2075C33.1073 23.4458 26.8073 12.5409 22.5645 0.389648" stroke="black" stroke-width="2.0486" stroke-miterlimit="10"/>
<path d="M33.4286 67.2992C25.9072 58.5752 20.8929 46.2682 16.2643 35.2075C11.3143 23.4458 5.07863 12.5409 0.771484 0.389648" stroke="black" stroke-width="2.5608" stroke-miterlimit="10"/>
</g>
<defs>
<clipPath id="clip0">
<rect width="99" height="68" fill="white"/>
</clipPath>
</defs>
</svg>
