<svg width="89" height="68" viewBox="0 0 89 68" fill="none" xmlns="http://www.w3.org/2000/svg">
<g clip-path="url(#clip0)">
<path d="M88.8072 67.2992C81.2857 58.5752 76.2714 46.2682 71.6429 35.2075C66.6929 23.4458 60.4572 12.5409 56.15 0.389648" stroke="black" stroke-width="1.0243" stroke-miterlimit="10"/>
<path d="M67.0143 67.2992C59.4929 58.5752 54.4786 46.2682 49.85 35.2075C44.9 23.4458 38.6 12.5409 34.3572 0.389648" stroke="black" stroke-width="1.5365" stroke-miterlimit="10"/>
<path d="M45.2215 67.2992C37.7 58.5752 32.6858 46.2682 28.0572 35.2075C23.1072 23.4458 16.8072 12.5409 12.5643 0.389648" stroke="black" stroke-width="2.0486" stroke-miterlimit="10"/>
<path d="M23.4286 67.2992C15.9071 58.5752 10.8929 46.2682 6.26428 35.2075C1.31428 23.4458 -4.92143 12.5409 -9.22858 0.389648" stroke="black" stroke-width="2.5608" stroke-miterlimit="10"/>
</g>
<defs>
<clipPath id="clip0">
<rect width="99" height="68" fill="white" transform="translate(-10)"/>
</clipPath>
</defs>
</svg>
