<svg width="70" height="58" viewBox="0 0 70 58" fill="none" xmlns="http://www.w3.org/2000/svg">
<path d="M23.3109 36.0835H26.3072H26.3671H26.3072L35.8951 13.2669L44.764 36.0835H48.779H51.7753L63.1011 0.0640915H59.8052L50.0974 31.7894L39.6105 4.74277H32.5993L34.3371 9.29326L24.9289 32.1098L13.7229 0H6.83154L19.4158 36.0835H23.3109Z" fill="white"/>
<path d="M69.0935 48.5161C61.2433 48.5161 53.3332 48.2597 45.4831 48.3238C43.5655 48.3238 41.8276 48.6443 40.0299 49.2211C39.97 49.157 39.91 49.0929 39.91 49.0288C39.131 47.9393 38.0524 46.9779 37.2134 45.9525C36.6142 45.2475 35.955 44.5425 35.4756 43.7093C34.0374 41.2739 36.4344 38.8384 39.0711 40.2484C40.0898 40.8252 41.0486 39.1589 39.97 38.5821C37.0336 36.9798 33.3183 38.8384 33.1385 41.8507C29.4831 45.3116 24.6891 48.3238 19.7752 48.7084C18.0973 48.8365 16.3595 48.7724 14.6816 48.7724C10.0674 48.7724 5.5131 48.7724 0.898875 48.7724C-0.299625 48.7724 -0.299625 50.6952 0.898875 50.6952C5.93257 50.6952 11.0262 50.6952 16.0599 50.6952C22.6516 50.6952 28.4644 48.5161 33.4981 44.0297C33.558 44.1579 33.6179 44.2861 33.7378 44.4784C34.8763 46.5293 37.1535 47.8752 38.2321 49.862C37.6928 50.0543 37.1535 50.2465 36.6142 50.4388C34.4569 51.272 31.5205 52.4897 30.1423 54.4765C29.0636 56.0147 29.9026 57.4247 31.6404 57.7451C34.0973 58.1297 37.4531 56.3992 39.2509 54.7329C40.4494 53.6433 40.9887 52.3615 40.8089 51.0797C43.3257 50.5029 45.9624 50.3106 48.5991 50.4388C55.4306 50.7593 62.322 50.567 69.1534 50.567C70.292 50.4388 70.292 48.5161 69.0935 48.5161ZM35.6554 54.6688C34.9962 54.9892 33.7977 55.566 33.0187 55.6301C30.6217 55.7583 32.1797 54.9892 32.8988 54.4765C34.6966 53.1947 36.6741 52.2333 38.7115 51.5924C38.5917 53.0665 37.0336 53.9638 35.6554 54.6688Z" fill="white"/>
</svg>
