<svg width="320" height="35" viewBox="0 0 320 35" fill="none" xmlns="http://www.w3.org/2000/svg">
<path d="M22.166 34.3025C20.0621 34.1098 17.3571 32.6448 15.9294 30.6402L17.019 29.5608C18.8975 31.9124 20.0245 32.6834 22.0909 32.9532C23.4058 33.146 24.4953 32.8376 25.3219 32.2593C26.1484 31.6425 26.5992 30.9101 26.6744 30.1005C26.7495 29.2524 26.5617 28.5585 25.9981 27.9416C25.4346 27.2863 24.2699 26.3611 22.5041 25.4744C20.9262 24.7034 19.724 24.0095 18.935 23.4312C18.1085 22.8529 17.4698 21.7735 17.0565 20.9254C16.6433 20.0773 16.493 19.1906 16.6057 18.2654C16.7935 16.839 17.4698 15.721 18.672 14.8729C19.8743 14.0248 21.3019 13.7164 22.955 13.8706C23.8567 13.9477 24.7208 14.179 25.5097 14.526C26.3363 14.8729 27.0876 15.5283 28.0269 16.6848L26.7495 17.61C26.3738 17.0318 26.186 16.839 25.9606 16.6077C25.134 15.7596 24.1196 15.297 22.955 15.1813C21.7903 15.0657 20.9638 15.297 20.4378 15.721C19.8743 16.2222 19.5361 16.7619 19.461 17.3787C19.3859 18.1497 19.6113 18.8051 20.1748 19.3834C20.7759 20.0002 21.903 21.1181 23.7064 22.0434C25.4346 22.93 26.6368 23.624 27.3882 24.1251C28.2147 24.6648 28.8159 25.3587 29.2291 26.2069C29.6424 27.0935 29.7927 28.25 29.68 29.2909C29.4545 30.9101 28.7031 32.2593 27.3131 33.1845C25.923 34.1098 24.1948 34.5338 22.166 34.3025Z" fill="black"/>
<path d="M43.1299 15.9147V33.995H39.4105V15.9147H31.6335L31.7087 14.1799H50.982L51.0195 15.9147H43.1299Z" fill="black"/>
<path d="M59.2101 15.9137V23.2769H65.2212V25.0117H59.2101V32.2208H68.3019V33.9556H55.4531V14.1018H68.3771V15.8752H59.2101V15.9137Z" fill="black"/>
<path d="M3.75697 15.9146V23.2778H9.76813V25.0126H3.75697V32.2216H12.8488V33.9564H0V14.1027H12.8864V15.876H3.75697V15.9146Z" fill="black"/>
<path d="M77.7318 15.9145V23.2777H83.743V25.0125H77.7318V33.9948H73.9749V14.1412H86.8613V15.876H77.7318V15.9145Z" fill="black"/>
<path d="M134.086 33.9562V14.1412H137.805V33.9562H134.086Z" fill="black"/>
<path d="M241.461 22.6987C235.863 25.1659 229.438 26.5923 223.465 27.7488C221.736 28.0958 215.688 29.5221 216.852 25.7442C217.303 24.2793 218.581 22.8914 219.858 22.1204C221.06 21.388 221.812 21.3109 220.985 23.0457C220.421 24.2022 222.15 25.243 222.713 24.0865C223.277 22.8529 223.765 21.2723 222.676 20.1929C221.999 19.499 221.098 19.4605 220.234 19.7303C217.604 20.5013 214.824 23.5854 214.748 26.4766C214.636 29.9076 217.904 30.4473 220.534 30.216C224.103 29.9076 227.635 28.9439 231.129 28.0572C234.961 27.132 238.868 26.014 242.512 24.4335C243.64 23.9323 242.625 22.159 241.461 22.6987Z" fill="black"/>
<path d="M153.285 28.7512C159.446 28.7512 165.645 28.7512 171.806 28.7512C175.488 28.7512 179.583 29.2138 183.228 28.5199C187.398 27.7103 190.629 24.7419 193.634 21.8506C194.574 20.9639 193.146 19.499 192.244 20.4242C189.051 23.5082 185.595 26.6309 180.936 26.7465C177.479 26.8236 173.985 26.7465 170.529 26.7465C164.781 26.7465 159.033 26.7465 153.247 26.7465C152.007 26.708 152.007 28.7512 153.285 28.7512Z" fill="black"/>
<path d="M197.842 17.9955C195.25 16.5306 190.967 18.4581 192.132 21.9662C192.583 23.3155 193.785 24.5106 194.724 25.5129C195.212 26.0526 195.926 26.5923 196.302 27.2091C196.941 28.2115 196.302 28.7897 195.4 29.368C194.649 29.8306 193.86 30.1775 193.033 30.4474C192.62 30.5631 192.057 30.5631 191.643 30.7173C191.568 30.7173 191.493 30.7173 191.455 30.7173C191.23 30.6402 191.155 30.7173 191.268 30.9486C190.742 31.3726 191.643 30.91 191.531 30.9486C192.244 30.6787 192.958 29.9077 193.672 29.5222C194.348 29.1367 195.062 28.8283 195.776 28.5584C199.308 27.2477 202.764 26.1683 206.483 25.59C210.24 25.0117 214.223 24.5491 217.867 23.3541C219.069 22.9685 218.581 21.0025 217.341 21.388C213.734 22.5445 209.865 23.0071 206.145 23.5854C202.125 24.2022 198.368 25.3201 194.574 26.8236C193.259 27.3633 186.91 30.4088 190.178 32.4135C192.507 33.8399 198.218 31.1028 198.631 28.4042C198.894 26.6309 197.241 25.3587 196.189 24.2407C195.513 23.5083 194.536 22.6601 194.123 21.7349C193.372 20.0001 195.25 18.9207 196.753 19.7688C197.993 20.3856 198.969 18.6509 197.842 17.9955Z" fill="black"/>
<path d="M249.763 22.3517C247.359 19.9616 243.865 20.6555 241.46 22.7372C240.07 23.9323 238.605 26.3224 239.169 28.2885C239.958 30.91 243.226 29.5607 244.767 28.6355C246.645 27.5175 248.336 25.9755 249.726 24.2793C250.515 23.2769 249.125 21.812 248.336 22.8529C247.622 23.7395 246.833 24.5106 246.006 25.2816C245.217 25.9755 244.353 26.6309 243.452 27.132C243.038 27.3633 241.611 28.2114 241.122 27.8645C240.446 27.3633 241.911 25.2045 242.249 24.819C243.752 23.1227 246.532 22.1204 248.298 23.8937C249.275 24.7033 250.703 23.2769 249.763 22.3517Z" fill="black"/>
<path d="M249.651 21.9662C248.373 23.3926 246.194 26.0526 247.209 28.1344C248.035 29.8692 250.364 29.6379 251.905 29.5222C254.497 29.2909 257.127 28.8668 259.569 27.9031C266.933 25.0118 270.915 17.3787 274.71 10.748C275.762 8.93607 276.776 7.08563 277.828 5.27374C278.204 4.65693 278.579 4.00156 278.992 3.38475C279.143 3.19199 279.293 2.99924 279.406 2.80649C279.631 2.49808 279.518 2.76794 279.218 2.76794C279.744 2.80649 280.232 2.26677 280.195 1.76561C280.044 -1.4341 276.363 1.72706 275.499 2.53663C272.493 5.42794 269.901 8.97462 267.834 12.6369C265.993 15.9138 263.965 20.1158 264.754 24.0094C265.655 28.4813 269.938 28.9825 273.733 28.5584C279.368 27.9416 284.966 26.0526 290.188 23.8552C291.353 23.3541 290.827 21.388 289.662 21.8891C285.868 23.5083 281.923 24.819 277.941 25.7442C275.273 26.361 269.375 28.0573 267.383 25.166C265.655 22.6987 267.045 18.9207 268.135 16.492C269.675 13.061 271.817 9.89984 274.184 7.00852C275.198 5.7749 276.287 4.54127 277.49 3.46185C277.865 3.11489 278.354 2.84504 278.73 2.45953C278.842 2.38243 279.03 2.30533 279.03 2.30533C279.03 2.30533 278.316 2.15112 278.279 1.68851C278.617 1.34155 278.955 0.994597 279.255 0.686191C277.715 0.531988 276.363 3.84736 275.762 4.84968C273.883 8.1265 272.042 11.4804 270.051 14.6801C268.172 17.7257 266.144 21.041 263.401 23.3541C260.508 25.7828 256.789 26.8622 253.145 27.3248C252.393 27.4019 249.763 28.0573 249.125 27.3248C248.786 26.9393 249.125 26.3225 249.312 25.937C249.763 25.0118 250.402 24.1636 251.078 23.3926C251.905 22.4674 250.515 21.0025 249.651 21.9662Z" fill="black"/>
<path d="M297.176 22.0047C294.772 19.6146 291.278 20.3085 288.874 22.3903C287.483 23.5853 286.018 25.9755 286.582 27.9416C287.371 30.5631 290.639 29.2138 292.18 28.2886C294.058 27.1706 295.749 25.6285 297.139 23.9323C297.928 22.93 296.538 21.465 295.749 22.5059C295.035 23.3926 294.246 24.1636 293.419 24.9346C292.63 25.6285 291.766 26.2839 290.865 26.7851C290.451 27.0164 289.024 27.8645 288.535 27.5175C287.859 27.0164 289.324 24.8575 289.662 24.472C291.165 22.7758 293.945 21.7734 295.711 23.5468C296.688 24.3564 298.078 22.93 297.176 22.0047Z" fill="black"/>
<path d="M296.876 21.812C295.899 23.2384 294.998 25.4358 295.824 27.132C297.064 29.5607 300.52 29.0596 302.737 29.0596C308.185 29.0596 313.595 29.0596 319.042 29.0596C320.32 29.0596 320.32 27.0164 319.042 27.0164C314.459 27.0164 309.875 27.0164 305.292 27.0164C304.052 27.0164 302.812 27.0164 301.572 27.0164C300.558 27.0164 299.281 27.1706 298.341 26.7851C296.688 26.0526 297.853 23.8938 298.604 22.8529C299.318 21.7735 297.628 20.7711 296.876 21.812Z" fill="black"/>
<path d="M96.7794 14.1404H93.5484L94.4877 16.8776L86.7859 33.9556H88.6268L95.3142 19.1135C95.3142 19.1135 100.724 31.3341 101.926 33.9556H105.946L96.7794 14.1404Z" fill="black"/>
<path d="M153.247 14.1404H150.016L150.955 16.8775L143.253 33.9941H145.094L151.782 19.152C151.782 19.152 157.192 31.3726 158.394 33.9941H162.414L153.247 14.1404Z" fill="black"/>
<path d="M125.859 33.9555L111.582 17.186V33.7242H110.117V14.1404H113.724L125.333 28.0187V17.8028V14.1404H126.986V18.0341V33.9941H125.859V33.9555Z" fill="black"/>
<path d="M110.154 16.1065L108.802 14.1018L111.807 14.1404L110.154 16.1065Z" fill="black"/>
</svg>
