<svg width="280" height="28" viewBox="0 0 280 28" fill="none" xmlns="http://www.w3.org/2000/svg">
<g clip-path="url(#clip0)">
<path d="M19.394 27.9366C17.5532 27.778 15.1864 26.573 13.9373 24.9241L14.8906 24.0362C16.5342 25.9705 17.5203 26.6047 19.3283 26.8267C20.4788 26.9853 21.432 26.7316 22.1552 26.2559C22.8784 25.7486 23.2728 25.1461 23.3386 24.4802C23.4043 23.7825 23.24 23.2118 22.7469 22.7044C22.2538 22.1653 21.2348 21.4043 19.6898 20.6749C18.3092 20.0407 17.2573 19.47 16.567 18.9943C15.8439 18.5187 15.2851 17.6308 14.9235 16.9332C14.5619 16.2355 14.4304 15.5062 14.529 14.7452C14.6934 13.5719 15.2851 12.6523 16.337 11.9547C17.3889 11.257 18.638 11.0034 20.0843 11.1302C20.8732 11.1936 21.6293 11.3839 22.3196 11.6693C23.0427 11.9547 23.7002 12.4937 24.522 13.445L23.4043 14.2061C23.0756 13.7304 22.9112 13.5719 22.714 13.3816C21.9908 12.684 21.1033 12.3035 20.0843 12.2084C19.0653 12.1132 18.3421 12.3035 17.8819 12.6523C17.3888 13.0645 17.093 13.5085 17.0273 14.0158C16.9615 14.65 17.1588 15.1891 17.6518 15.6648C18.1778 16.1721 19.1639 17.0917 20.7417 17.8527C22.2538 18.5821 23.3057 19.1529 23.9631 19.5651C24.6863 20.009 25.2123 20.5798 25.5738 21.2774C25.9354 22.0068 26.0669 22.9581 25.9683 23.8142C25.7711 25.1461 25.1136 26.2559 23.8974 27.017C22.6812 27.778 21.2019 28.1268 19.394 27.9366Z" fill="white"/>
<path d="M37.7692 12.8108L37.7692 27.6829L34.515 27.6829L34.515 12.8108L27.6777 12.8108L27.7434 11.3839L44.6065 11.3839L44.6394 12.8108L37.7692 12.8108Z" fill="white"/>
<path d="M51.8054 12.8109L51.8054 18.8675L57.0649 18.8675L57.0649 20.2945L51.8054 20.2945L51.8054 26.2242L59.7603 26.2242L59.7603 27.6512L48.5183 27.6512L48.5183 11.3205L59.7932 11.3205L59.7932 12.7792L51.8054 12.7792L51.8054 12.8109Z" fill="white"/>
<path d="M3.28712 12.8109L3.28712 18.8675L8.54657 18.8675L8.54657 20.2945L3.28712 20.2945L3.28712 26.2242L11.242 26.2242L11.242 27.6512L-3.12314e-05 27.6512L-3.05176e-05 11.3205L11.2749 11.3205L11.2749 12.7792L3.28712 12.7792L3.28712 12.8109Z" fill="white"/>
<path d="M68.0439 12.8109L68.0439 18.8675L73.3034 18.8675L73.3034 20.2945L68.0439 20.2945L68.0439 27.6829L64.7568 27.6829L64.7568 11.3522L76.0317 11.3522L76.0317 12.7792L68.0439 12.7792L68.0439 12.8109Z" fill="white"/>
<path d="M117.318 27.6512L117.318 11.3522L120.573 11.3522L120.573 27.6512L117.318 27.6512Z" fill="white"/>
<path d="M211.265 18.3919C206.368 20.4213 200.779 21.5946 195.52 22.5142C194.008 22.7996 188.716 23.9728 189.735 20.8652C190.129 19.6603 191.247 18.5187 192.364 17.8845C193.416 17.282 194.074 17.2186 193.35 18.6455C192.857 19.5968 194.369 20.453 194.863 19.5017C195.356 18.487 195.783 17.1869 194.83 16.299C194.238 15.7282 193.449 15.6965 192.693 15.9185C190.392 16.5527 187.96 19.0895 187.894 21.4677C187.795 24.2899 190.655 24.7339 192.956 24.5436C196.079 24.2899 199.169 23.4972 202.226 22.7679C205.579 22.0068 208.997 21.0872 212.186 19.7871C213.172 19.4066 212.284 17.9479 211.265 18.3919Z" fill="white"/>
<path d="M134.149 23.3703C139.54 23.3703 144.964 23.3703 150.355 23.3703C153.576 23.3703 157.159 23.7509 160.348 23.1801C163.996 22.5142 166.823 20.0725 169.453 17.6942C170.275 16.9649 169.026 15.7599 168.237 16.521C165.443 19.0578 162.418 21.6263 158.342 21.7214C155.318 21.7848 152.261 21.7214 149.237 21.7214C144.208 21.7214 139.178 21.7214 134.116 21.7214C133.031 21.6897 133.031 23.3703 134.149 23.3703Z" fill="white"/>
<path d="M173.134 14.5232C170.866 13.3182 167.119 14.9037 168.138 17.7893C168.532 18.8992 169.584 19.8822 170.406 20.7067C170.833 21.1506 171.458 21.5946 171.787 22.1019C172.345 22.9264 171.787 23.402 170.998 23.8777C170.34 24.2582 169.65 24.5436 168.927 24.7656C168.565 24.8607 168.072 24.8607 167.711 24.9875C167.645 24.9875 167.579 24.9875 167.546 24.9875C167.349 24.9241 167.283 24.9875 167.382 25.1778C166.922 25.5266 167.711 25.1461 167.612 25.1778C168.236 24.9558 168.861 24.3216 169.486 24.0045C170.077 23.6874 170.702 23.4337 171.326 23.2118C174.416 22.1336 177.441 21.2457 180.695 20.7701C183.982 20.2944 187.466 19.9139 190.655 18.9309C191.707 18.6138 191.279 16.9966 190.195 17.3137C187.039 18.265 183.653 18.6455 180.399 19.1212C176.882 19.6285 173.595 20.5481 170.275 21.7848C169.124 22.2288 163.569 24.7339 166.429 26.3828C168.467 27.5561 173.463 25.3046 173.825 23.0849C174.055 21.6263 172.608 20.5798 171.688 19.6602C171.096 19.0577 170.242 18.3601 169.88 17.5991C169.223 16.1721 170.866 15.2842 172.181 15.9819C173.233 16.4892 174.121 15.0623 173.134 14.5232Z" fill="white"/>
<path d="M218.53 18.1065C216.426 16.1405 213.369 16.7113 211.265 18.4236C210.049 19.4066 208.767 21.3726 209.26 22.9899C209.951 25.1461 212.81 24.0363 214.158 23.2753C215.802 22.3557 217.281 21.0873 218.497 19.692C219.187 18.8676 217.971 17.6626 217.281 18.5187C216.656 19.2481 215.966 19.8823 215.243 20.5165C214.553 21.0873 213.797 21.6263 213.008 22.0386C212.646 22.2288 211.397 22.9264 210.97 22.6411C210.378 22.2288 211.66 20.4531 211.956 20.136C213.271 18.7407 215.703 17.9162 217.248 19.3749C218.136 20.0408 219.352 18.8676 218.53 18.1065Z" fill="white"/>
<path d="M218.431 17.7894C217.314 18.9626 215.407 21.1506 216.295 22.863C217.018 24.2899 219.056 24.0997 220.404 24.0046C222.672 23.8143 224.973 23.4655 227.109 22.6727C233.552 20.2945 237.037 14.0159 240.357 8.56174C241.277 7.07137 242.165 5.54928 243.085 4.05891C243.414 3.55155 243.742 3.01247 244.104 2.50511C244.236 2.34656 244.367 2.18801 244.466 2.02946C244.663 1.77578 244.564 1.99775 244.301 1.99775C244.761 2.02946 245.189 1.58552 245.156 1.17329C245.024 -1.45865 241.803 1.14158 241.047 1.80749C238.417 4.18575 236.149 7.10308 234.341 10.1155C232.73 12.8109 230.955 16.2673 231.646 19.47C232.435 23.1484 236.182 23.5606 239.502 23.2118C244.433 22.7044 249.331 21.1506 253.9 19.3432C254.919 18.9309 254.459 17.3137 253.44 17.726C250.12 19.0578 246.668 20.1359 243.184 20.897C240.85 21.4043 235.689 22.7996 233.947 20.4213C232.435 18.3919 233.651 15.2843 234.604 13.2865C235.952 10.4643 237.826 7.86412 239.896 5.48586C240.784 4.47114 241.737 3.45642 242.789 2.56853C243.118 2.28314 243.545 2.06117 243.874 1.74407C243.973 1.68065 244.137 1.61723 244.137 1.61723C244.137 1.61723 243.512 1.49039 243.479 1.10987C243.775 0.824478 244.071 0.539087 244.334 0.285406C242.986 0.158565 241.803 2.88563 241.277 3.7101C239.634 6.40545 238.023 9.16423 236.281 11.7962C234.637 14.3013 232.862 17.0283 230.462 18.9309C227.931 20.9287 224.677 21.8166 221.488 22.1971C220.831 22.2605 218.53 22.7996 217.971 22.1971C217.675 21.88 217.971 21.3726 218.136 21.0555C218.53 20.2945 219.089 19.5969 219.68 18.9627C220.437 18.2016 219.187 16.9966 218.431 17.7894Z" fill="white"/>
<path d="M260.014 17.8211C257.91 15.8551 254.853 16.4258 252.749 18.1382C251.533 19.1212 250.251 21.0872 250.744 22.7044C251.434 24.8607 254.294 23.7509 255.642 22.9898C257.286 22.0702 258.765 20.8018 259.981 19.4066C260.671 18.5821 259.455 17.3771 258.765 18.2333C258.14 18.9626 257.45 19.5968 256.727 20.231C256.036 20.8018 255.28 21.3409 254.491 21.7531C254.13 21.9434 252.881 22.641 252.453 22.3556C251.862 21.9434 253.144 20.1676 253.44 19.8505C254.754 18.4553 257.187 17.6308 258.732 19.0895C259.587 19.7554 260.836 18.5821 260.014 17.8211Z" fill="white"/>
<path d="M259.784 17.6625C258.929 18.8358 258.14 20.6433 258.864 22.0385C259.948 24.0362 262.972 23.624 264.912 23.624C269.678 23.624 274.412 23.624 279.178 23.624C280.296 23.624 280.296 21.9434 279.178 21.9434C275.168 21.9434 271.157 21.9434 267.147 21.9434C266.062 21.9434 264.978 21.9434 263.893 21.9434C263.005 21.9434 261.888 22.0702 261.066 21.7531C259.62 21.1506 260.639 19.3749 261.296 18.5187C261.921 17.6308 260.408 16.8063 259.784 17.6625Z" fill="white"/>
<path d="M84.6771 11.3522L81.8501 11.3522L82.6719 13.6037L75.9332 27.6829L77.5439 27.6829L83.3951 15.4745C83.3951 15.4745 88.1286 25.5266 89.1805 27.6829L92.6978 27.6829L84.6771 11.3522Z" fill="white"/>
<path d="M134.083 11.3522L131.256 11.3522L132.078 13.6037L125.339 27.6829L126.95 27.6829L132.801 15.4745C132.801 15.4745 137.535 25.5266 138.586 27.6829L142.104 27.6829L134.083 11.3522Z" fill="white"/>
<path d="M110.12 27.6512L97.6286 13.8573L97.6286 27.461L96.3466 27.461L96.3466 11.3522L99.5023 11.3522L109.66 22.7679L109.66 14.3647L109.66 11.3522L111.106 11.3522L111.106 14.555L111.106 27.6829L110.12 27.6829L110.12 27.6512Z" fill="white"/>
<path d="M96.3794 12.9694L95.196 11.3205L97.8257 11.3522L96.3794 12.9694Z" fill="white"/>
</g>
<defs>
<clipPath id="clip0">
<rect width="28" height="280" fill="white" transform="translate(280) rotate(90)"/>
</clipPath>
</defs>
</svg>
